@startuml
skinparam backgroundColor LightYellow
skinparam state {
  StartColor MediumBlue
  EndColor Red
  BackgroundColor #e0f
  BackgroundColor<<Warning>> #aaa
  FontColor<<Warning>> Orange
  BorderColor Orange
  FontName Monaco
}

[*] --> NotShooting

state "Not Shooting State" as NotShooting {
  state "Idle mode" as Idle <<Warning>>
  state "Configuring mode" as Configuring
  [*] --> Idle
  Idle --> Configuring : EvConfig
  Configuring --> Idle : EvConfig
}

NotShooting --> [*]
@enduml